# xmcd
#
# Track frame offsets:
#	150
#	18154
#	32340
#	49790
#	68790
#	87185
#	108562
#	139878
#	152973
#	170651
#	187254
#	212335
#	239365
#
# Disc length: 4281 seconds
#
# Revision: 1
# Processed by: cddbd v1.4PL0 Copyright (c) Steve Scherf et al.
# Submitted via: EasyCDDAExtractor 5.0.6
#
DISCID=af10b70d
DTITLE=Various Artist - Spyn Psycle
DYEAR=2002
DGENRE=Christian Rock
TTITLE0=Sanctus Real - Say It Loud
TTITLE1=The Benjamin Gate - Lift Me Up
TTITLE2=tobyMac - Yours
TTITLE3=Newsboys - Million Pieces
TTITLE4=Kevin Max - Existence
TTITLE5=ZOEgirl - Plain
TTITLE6=Andy Hunter - The Wonders of You
TTITLE7=Jody McBrayer - Shake It
TTITLE8=Audio Adrenaline - Speak to Me
TTITLE9=Rebecca St. James - All Around Me
TTITLE10=Avalon - The Best Thing
TTITLE11=Geoff Moore - God Believes In You
TTITLE12=Spyn Psycle - Multimedia
EXTD=
EXTT0=
EXTT1=
EXTT2=
EXTT3=
EXTT4=
EXTT5=
EXTT6=
EXTT7=
EXTT8=
EXTT9=
EXTT10=
EXTT11=
EXTT12=
PLAYORDER=
